<mxfile host="app.diagrams.net" agent="Mozilla/5.0 (Windows NT 10.0; Win64; x64) AppleWebKit/537.36 (KHTML, like Gecko) Chrome/128.0.0.0 Safari/537.36" version="24.7.14">
  <diagram name="Page-1" id="YuoQh9yvuaBtNG3JyP44">
    <mxGraphModel dx="819" dy="426" grid="1" gridSize="10" guides="1" tooltips="1" connect="1" arrows="1" fold="1" page="1" pageScale="1" pageWidth="850" pageHeight="1100" math="1" shadow="0">
      <root>
        <mxCell id="0" />
        <mxCell id="1" parent="0" />
        <mxCell id="hXCawDXBUV0tNoV4KAyl-23" style="edgeStyle=orthogonalEdgeStyle;rounded=0;orthogonalLoop=1;jettySize=auto;html=1;exitX=0;exitY=0.75;exitDx=0;exitDy=0;entryX=1;entryY=0.5;entryDx=0;entryDy=0;" parent="1" source="hXCawDXBUV0tNoV4KAyl-1" target="hXCawDXBUV0tNoV4KAyl-21" edge="1">
          <mxGeometry relative="1" as="geometry" />
        </mxCell>
        <mxCell id="hXCawDXBUV0tNoV4KAyl-28" style="edgeStyle=orthogonalEdgeStyle;rounded=0;orthogonalLoop=1;jettySize=auto;html=1;exitX=1;exitY=0.75;exitDx=0;exitDy=0;entryX=0;entryY=0.5;entryDx=0;entryDy=0;" parent="1" source="hXCawDXBUV0tNoV4KAyl-1" target="hXCawDXBUV0tNoV4KAyl-27" edge="1">
          <mxGeometry relative="1" as="geometry" />
        </mxCell>
        <mxCell id="hXCawDXBUV0tNoV4KAyl-30" style="edgeStyle=orthogonalEdgeStyle;rounded=0;orthogonalLoop=1;jettySize=auto;html=1;entryX=0;entryY=0.5;entryDx=0;entryDy=0;" parent="1" source="hXCawDXBUV0tNoV4KAyl-1" target="hXCawDXBUV0tNoV4KAyl-29" edge="1">
          <mxGeometry relative="1" as="geometry" />
        </mxCell>
        <mxCell id="hXCawDXBUV0tNoV4KAyl-1" value="" style="rounded=0;whiteSpace=wrap;html=1;fillColor=#99CCFF;" parent="1" vertex="1">
          <mxGeometry x="260" y="240" width="320" height="120" as="geometry" />
        </mxCell>
        <mxCell id="hXCawDXBUV0tNoV4KAyl-2" value="0" style="rounded=0;whiteSpace=wrap;html=1;fontSize=18;fillColor=#E6E6E6;" parent="1" vertex="1">
          <mxGeometry x="280" y="280" width="40" height="40" as="geometry" />
        </mxCell>
        <mxCell id="hXCawDXBUV0tNoV4KAyl-3" value="1" style="rounded=0;whiteSpace=wrap;html=1;fontSize=18;fillColor=#E6E6E6;" parent="1" vertex="1">
          <mxGeometry x="320" y="280" width="40" height="40" as="geometry" />
        </mxCell>
        <mxCell id="hXCawDXBUV0tNoV4KAyl-4" value="2" style="rounded=0;whiteSpace=wrap;html=1;fontSize=18;fillColor=#E6E6E6;" parent="1" vertex="1">
          <mxGeometry x="360" y="280" width="40" height="40" as="geometry" />
        </mxCell>
        <mxCell id="hXCawDXBUV0tNoV4KAyl-5" value="$$\cdots$$" style="rounded=0;whiteSpace=wrap;html=1;fillColor=#E6E6E6;" parent="1" vertex="1">
          <mxGeometry x="400" y="280" width="40" height="40" as="geometry" />
        </mxCell>
        <mxCell id="hXCawDXBUV0tNoV4KAyl-6" value="13" style="rounded=0;whiteSpace=wrap;html=1;fontSize=18;fillColor=#E6E6E6;" parent="1" vertex="1">
          <mxGeometry x="440" y="280" width="40" height="40" as="geometry" />
        </mxCell>
        <mxCell id="hXCawDXBUV0tNoV4KAyl-7" value="14" style="rounded=0;whiteSpace=wrap;html=1;fontSize=18;fillColor=#E6E6E6;" parent="1" vertex="1">
          <mxGeometry x="480" y="280" width="40" height="40" as="geometry" />
        </mxCell>
        <mxCell id="hXCawDXBUV0tNoV4KAyl-8" value="15" style="rounded=0;whiteSpace=wrap;html=1;fontSize=18;fillColor=#E6E6E6;" parent="1" vertex="1">
          <mxGeometry x="520" y="280" width="40" height="40" as="geometry" />
        </mxCell>
        <mxCell id="hXCawDXBUV0tNoV4KAyl-16" style="edgeStyle=orthogonalEdgeStyle;rounded=0;orthogonalLoop=1;jettySize=auto;html=1;entryX=0.25;entryY=0;entryDx=0;entryDy=0;" parent="1" source="hXCawDXBUV0tNoV4KAyl-9" target="hXCawDXBUV0tNoV4KAyl-1" edge="1">
          <mxGeometry relative="1" as="geometry" />
        </mxCell>
        <mxCell id="hXCawDXBUV0tNoV4KAyl-9" value="clk" style="text;html=1;align=center;verticalAlign=middle;whiteSpace=wrap;rounded=0;fontSize=15;" parent="1" vertex="1">
          <mxGeometry x="310" y="170" width="60" height="30" as="geometry" />
        </mxCell>
        <mxCell id="hXCawDXBUV0tNoV4KAyl-12" value="rst_n" style="text;html=1;align=center;verticalAlign=middle;whiteSpace=wrap;rounded=0;fontSize=15;" parent="1" vertex="1">
          <mxGeometry x="470" y="170" width="60" height="30" as="geometry" />
        </mxCell>
        <mxCell id="hXCawDXBUV0tNoV4KAyl-15" style="edgeStyle=orthogonalEdgeStyle;rounded=0;orthogonalLoop=1;jettySize=auto;html=1;entryX=0.75;entryY=0;entryDx=0;entryDy=0;" parent="1" source="hXCawDXBUV0tNoV4KAyl-12" target="hXCawDXBUV0tNoV4KAyl-1" edge="1">
          <mxGeometry relative="1" as="geometry" />
        </mxCell>
        <mxCell id="hXCawDXBUV0tNoV4KAyl-18" style="edgeStyle=orthogonalEdgeStyle;rounded=0;orthogonalLoop=1;jettySize=auto;html=1;entryX=0;entryY=0.25;entryDx=0;entryDy=0;" parent="1" source="hXCawDXBUV0tNoV4KAyl-17" target="hXCawDXBUV0tNoV4KAyl-1" edge="1">
          <mxGeometry relative="1" as="geometry" />
        </mxCell>
        <mxCell id="hXCawDXBUV0tNoV4KAyl-17" value="wen" style="text;html=1;align=center;verticalAlign=middle;whiteSpace=wrap;rounded=0;fontSize=15;" parent="1" vertex="1">
          <mxGeometry x="160" y="255" width="40" height="30" as="geometry" />
        </mxCell>
        <mxCell id="hXCawDXBUV0tNoV4KAyl-20" style="edgeStyle=orthogonalEdgeStyle;rounded=0;orthogonalLoop=1;jettySize=auto;html=1;entryX=0;entryY=0.5;entryDx=0;entryDy=0;" parent="1" source="hXCawDXBUV0tNoV4KAyl-19" target="hXCawDXBUV0tNoV4KAyl-1" edge="1">
          <mxGeometry relative="1" as="geometry" />
        </mxCell>
        <mxCell id="hXCawDXBUV0tNoV4KAyl-19" value="din" style="text;html=1;align=center;verticalAlign=middle;whiteSpace=wrap;rounded=0;fontSize=15;" parent="1" vertex="1">
          <mxGeometry x="160" y="285" width="40" height="30" as="geometry" />
        </mxCell>
        <mxCell id="hXCawDXBUV0tNoV4KAyl-21" value="empty" style="text;html=1;align=center;verticalAlign=middle;whiteSpace=wrap;rounded=0;fontSize=15;" parent="1" vertex="1">
          <mxGeometry x="150" y="315" width="50" height="30" as="geometry" />
        </mxCell>
        <mxCell id="hXCawDXBUV0tNoV4KAyl-27" value="full" style="text;html=1;align=center;verticalAlign=middle;whiteSpace=wrap;rounded=0;fontSize=15;" parent="1" vertex="1">
          <mxGeometry x="640" y="315" width="40" height="30" as="geometry" />
        </mxCell>
        <mxCell id="hXCawDXBUV0tNoV4KAyl-29" value="dout" style="text;html=1;align=center;verticalAlign=middle;whiteSpace=wrap;rounded=0;fontSize=15;" parent="1" vertex="1">
          <mxGeometry x="640" y="285" width="40" height="30" as="geometry" />
        </mxCell>
        <mxCell id="hXCawDXBUV0tNoV4KAyl-33" style="edgeStyle=orthogonalEdgeStyle;rounded=0;orthogonalLoop=1;jettySize=auto;html=1;entryX=1;entryY=0.25;entryDx=0;entryDy=0;" parent="1" source="hXCawDXBUV0tNoV4KAyl-31" target="hXCawDXBUV0tNoV4KAyl-1" edge="1">
          <mxGeometry relative="1" as="geometry" />
        </mxCell>
        <mxCell id="hXCawDXBUV0tNoV4KAyl-31" value="ren" style="text;html=1;align=center;verticalAlign=middle;whiteSpace=wrap;rounded=0;fontSize=15;" parent="1" vertex="1">
          <mxGeometry x="640" y="255" width="40" height="30" as="geometry" />
        </mxCell>
        <mxCell id="hXCawDXBUV0tNoV4KAyl-36" style="edgeStyle=orthogonalEdgeStyle;rounded=0;orthogonalLoop=1;jettySize=auto;html=1;entryX=0.5;entryY=1;entryDx=0;entryDy=0;" parent="1" source="hXCawDXBUV0tNoV4KAyl-34" target="hXCawDXBUV0tNoV4KAyl-2" edge="1">
          <mxGeometry relative="1" as="geometry" />
        </mxCell>
        <mxCell id="hXCawDXBUV0tNoV4KAyl-34" value="read_ptr&amp;nbsp;" style="text;html=1;align=center;verticalAlign=middle;whiteSpace=wrap;rounded=0;fontSize=12;" parent="1" vertex="1">
          <mxGeometry x="265" y="343" width="70" height="17" as="geometry" />
        </mxCell>
        <mxCell id="hXCawDXBUV0tNoV4KAyl-38" style="edgeStyle=orthogonalEdgeStyle;rounded=0;orthogonalLoop=1;jettySize=auto;html=1;entryX=0.5;entryY=0;entryDx=0;entryDy=0;" parent="1" source="hXCawDXBUV0tNoV4KAyl-37" target="hXCawDXBUV0tNoV4KAyl-2" edge="1">
          <mxGeometry relative="1" as="geometry" />
        </mxCell>
        <mxCell id="hXCawDXBUV0tNoV4KAyl-37" value="write_ptr&amp;nbsp;" style="text;html=1;align=center;verticalAlign=middle;whiteSpace=wrap;rounded=0;fontSize=12;" parent="1" vertex="1">
          <mxGeometry x="265" y="240" width="70" height="20" as="geometry" />
        </mxCell>
        <mxCell id="hXCawDXBUV0tNoV4KAyl-39" value="" style="endArrow=none;html=1;rounded=0;" parent="1" edge="1">
          <mxGeometry width="50" height="50" relative="1" as="geometry">
            <mxPoint x="220" y="275" as="sourcePoint" />
            <mxPoint x="230" y="265" as="targetPoint" />
          </mxGeometry>
        </mxCell>
        <mxCell id="hXCawDXBUV0tNoV4KAyl-41" value="&lt;font style=&quot;font-size: 10px;&quot;&gt;1&lt;/font&gt;" style="text;html=1;align=center;verticalAlign=middle;whiteSpace=wrap;rounded=0;fontSize=15;" parent="1" vertex="1">
          <mxGeometry x="210" y="265" width="35" height="20" as="geometry" />
        </mxCell>
        <mxCell id="hXCawDXBUV0tNoV4KAyl-42" value="" style="endArrow=none;html=1;rounded=0;" parent="1" edge="1">
          <mxGeometry width="50" height="50" relative="1" as="geometry">
            <mxPoint x="220" y="305" as="sourcePoint" />
            <mxPoint x="230" y="295" as="targetPoint" />
          </mxGeometry>
        </mxCell>
        <mxCell id="hXCawDXBUV0tNoV4KAyl-43" value="" style="endArrow=none;html=1;rounded=0;" parent="1" edge="1">
          <mxGeometry width="50" height="50" relative="1" as="geometry">
            <mxPoint x="220" y="335" as="sourcePoint" />
            <mxPoint x="230" y="325" as="targetPoint" />
          </mxGeometry>
        </mxCell>
        <mxCell id="hXCawDXBUV0tNoV4KAyl-47" value="" style="endArrow=none;html=1;rounded=0;" parent="1" edge="1">
          <mxGeometry width="50" height="50" relative="1" as="geometry">
            <mxPoint x="600" y="275" as="sourcePoint" />
            <mxPoint x="610" y="265" as="targetPoint" />
          </mxGeometry>
        </mxCell>
        <mxCell id="hXCawDXBUV0tNoV4KAyl-48" value="" style="endArrow=none;html=1;rounded=0;" parent="1" edge="1">
          <mxGeometry width="50" height="50" relative="1" as="geometry">
            <mxPoint x="600" y="305" as="sourcePoint" />
            <mxPoint x="610" y="295" as="targetPoint" />
          </mxGeometry>
        </mxCell>
        <mxCell id="hXCawDXBUV0tNoV4KAyl-49" value="" style="endArrow=none;html=1;rounded=0;" parent="1" edge="1">
          <mxGeometry width="50" height="50" relative="1" as="geometry">
            <mxPoint x="600" y="335" as="sourcePoint" />
            <mxPoint x="610" y="325" as="targetPoint" />
          </mxGeometry>
        </mxCell>
        <mxCell id="hXCawDXBUV0tNoV4KAyl-50" value="&lt;font style=&quot;font-size: 10px;&quot;&gt;8&lt;/font&gt;" style="text;html=1;align=center;verticalAlign=middle;whiteSpace=wrap;rounded=0;fontSize=15;" parent="1" vertex="1">
          <mxGeometry x="210" y="295" width="35" height="20" as="geometry" />
        </mxCell>
        <mxCell id="hXCawDXBUV0tNoV4KAyl-51" value="&lt;font style=&quot;font-size: 10px;&quot;&gt;1&lt;/font&gt;" style="text;html=1;align=center;verticalAlign=middle;whiteSpace=wrap;rounded=0;fontSize=15;" parent="1" vertex="1">
          <mxGeometry x="210" y="325" width="35" height="20" as="geometry" />
        </mxCell>
        <mxCell id="hXCawDXBUV0tNoV4KAyl-52" value="&lt;font style=&quot;font-size: 10px;&quot;&gt;1&lt;/font&gt;" style="text;html=1;align=center;verticalAlign=middle;whiteSpace=wrap;rounded=0;fontSize=15;" parent="1" vertex="1">
          <mxGeometry x="590" y="265" width="35" height="20" as="geometry" />
        </mxCell>
        <mxCell id="hXCawDXBUV0tNoV4KAyl-53" value="&lt;font style=&quot;font-size: 10px;&quot;&gt;8&lt;/font&gt;" style="text;html=1;align=center;verticalAlign=middle;whiteSpace=wrap;rounded=0;fontSize=15;" parent="1" vertex="1">
          <mxGeometry x="590" y="295" width="35" height="20" as="geometry" />
        </mxCell>
        <mxCell id="hXCawDXBUV0tNoV4KAyl-54" value="&lt;font style=&quot;font-size: 10px;&quot;&gt;1&lt;/font&gt;" style="text;html=1;align=center;verticalAlign=middle;whiteSpace=wrap;rounded=0;fontSize=15;" parent="1" vertex="1">
          <mxGeometry x="590" y="325" width="35" height="20" as="geometry" />
        </mxCell>
      </root>
    </mxGraphModel>
  </diagram>
</mxfile>
